<svg width="105" height="49" viewBox="0 0 105 49" fill="none" xmlns="http://www.w3.org/2000/svg">
<g id="Group">
<g id="Group_2">
<path id="Vector" d="M35.6596 0H27.3418V4.88778H35.6596V0Z" fill="#343868"/>
<path id="Vector_2" d="M4.32444 21.4608C6.38333 23.4375 9.47167 25.0019 13.1772 25.0019C14.7422 25.0019 16.2244 24.4663 16.2244 23.3958C16.2244 22.3252 15.0717 21.7902 12.3539 21.2958C7.82444 20.4725 0.907222 19.4019 0.907222 12.5252C0.907222 7.87246 4.77778 3.63135 12.3128 3.63135C16.8011 3.63135 20.8361 4.90801 23.9656 7.46079L19.5183 13.3491C17.13 11.5375 14.0417 10.6313 11.8594 10.6313C9.80056 10.6313 9.34778 11.3725 9.34778 12.0725C9.34778 13.143 10.4594 13.5136 13.3828 14.008C17.9122 14.7902 24.6239 16.108 24.6239 22.4491C24.6239 28.5019 20.1356 32.0019 12.765 32.0019C6.91778 32.0019 2.92389 30.2725 0 27.6375L4.32444 21.4608Z" fill="#343868"/>
<path id="Vector_3" d="M27.3418 31.5078V7.00391H35.6596V31.5072H27.3418V31.5078Z" fill="#343868"/>
<path id="Vector_4" d="M40.1055 27.0098V31.5081H44.6055L40.1055 27.0098Z" fill="#343868"/>
<path id="Vector_5" d="M62.5547 31.5085H70.8719V17.8857L62.5547 26.203V31.5085Z" fill="#343868"/>
<path id="Vector_6" d="M95.8992 31.5079L94.8287 27.9668H84.2875L83.217 31.5079H74.1992L84.3287 4.04346H94.7875L104.917 31.5079H95.8992ZM89.5576 11.3723L86.4281 21.049H92.687L89.5576 11.3723Z" fill="#343868"/>
<path id="Vector_7" d="M70.871 0.0105557V11.62L62.5538 19.9389L50.9849 31.5078L45.1699 25.6928L45.1716 25.6894L40.1055 20.6233V9L40.1088 8.99611L50.9866 19.8739L70.8605 0L70.871 0.0105557Z" fill="#DE5500"/>
</g>
<g id="Group_3">
<path id="Vector_8" d="M91.4991 37.3828L89.3279 41.1173L87.1263 37.3828H84.4935H83.6313H80.6707L77.6774 41.3834V37.3828H74.5996V48.3184H77.6774V45.11L78.2079 44.45L80.9052 48.3184H84.6979L80.2341 42.5134L84.0052 37.9706L87.7902 43.925V48.3184H90.8679V43.925L95.0102 37.3828H91.4991Z" fill="#DE5500"/>
<path id="Vector_9" d="M102.121 44.3326C101.96 44.7276 101.676 45.0704 101.277 45.3509C100.882 45.6287 100.448 45.7637 99.9485 45.7637C99.4129 45.7637 98.9601 45.6426 98.5624 45.392C98.1462 45.1393 97.8146 44.7926 97.5762 44.3609C97.3346 43.9226 97.2168 43.4415 97.2168 42.8893C97.2168 42.3448 97.3379 41.8498 97.5762 41.4176C97.8146 40.9859 98.1462 40.6393 98.5646 40.3854C98.9601 40.1365 99.4129 40.0154 99.9485 40.0154C100.447 40.0154 100.882 40.1504 101.277 40.4281C101.676 40.7093 101.96 41.0515 102.121 41.447L102.191 41.617L104.867 40.3515L104.787 40.1926C104.363 39.3454 103.752 38.6348 102.97 38.0809C102.182 37.5226 101.155 37.2393 99.9168 37.2393C98.8607 37.2393 97.8668 37.4809 96.9612 37.9581C96.0768 38.4331 95.3701 39.1065 94.8618 39.9604C94.344 40.8459 94.0918 41.8043 94.0918 42.8898C94.0918 43.9709 94.3507 44.962 94.8618 45.8348C95.3801 46.7209 96.0674 47.3809 96.9629 47.8531L97.1012 47.9259L97.134 47.877C98.0001 48.3065 98.9407 48.5243 99.9329 48.5243C101.171 48.5243 102.198 48.2409 102.986 47.6826C103.772 47.1254 104.379 46.4198 104.788 45.5854L104.866 45.427L102.191 44.162L102.121 44.3326Z" fill="#DE5500"/>
</g>
</g>
</svg>
