<svg width="118" height="55" viewBox="0 0 118 55" fill="none" xmlns="http://www.w3.org/2000/svg">
<g id="Group">
<g id="Group_2">
<path id="Vector" d="M40.0499 0H30.707V5.49002H40.0499V0Z" fill="#343868"/>
<path id="Vector_2" d="M4.85445 24.1048C7.16665 26.3242 10.6356 28.0822 14.7985 28.0822C16.5565 28.0822 18.2204 27.4809 18.2204 26.2785C18.2204 25.076 16.9251 24.4747 13.8731 23.9192C8.78607 22.9939 1.01563 21.7914 1.01563 14.068C1.01563 8.84233 5.36291 4.07812 13.8261 4.07812C18.8674 4.07812 23.399 5.51196 26.915 8.37964L21.9207 14.9933C19.2386 12.9583 15.7697 11.9414 13.3189 11.9414C11.0067 11.9414 10.4983 12.7739 10.4983 13.5595C10.4983 14.762 11.7465 15.1789 15.0311 15.7331C20.1182 16.6115 27.6573 18.0924 27.6573 25.2145C27.6573 32.0125 22.616 35.9442 14.3371 35.9442C7.76916 35.9442 3.28334 34.0019 0 31.0414L4.85445 24.1048Z" fill="#343868"/>
<path id="Vector_3" d="M30.707 35.3897V7.86719H40.0499V35.3897H30.707Z" fill="#343868"/>
<path id="Vector_4" d="M45.0449 30.3379V35.3906H50.0989L45.0449 30.3379Z" fill="#343868"/>
<path id="Vector_5" d="M70.2578 35.3895H79.5994V20.0889L70.2578 29.4304V35.3895Z" fill="#343868"/>
<path id="Vector_6" d="M107.709 35.3898L106.506 31.4125H94.6668L93.4643 35.3898H83.3359L94.7126 4.54199H106.46L117.837 35.3898H107.709ZM100.586 12.7738L97.0718 23.642H104.101L100.586 12.7738Z" fill="#343868"/>
<path id="Vector_7" d="M79.5987 0.0127114V13.052L70.2572 22.3961L57.2624 35.3896L50.7313 28.8585L50.7338 28.8547L45.043 23.1638V10.1093L45.0468 10.1055L57.2649 22.3224L79.5873 0L79.5987 0.0127114Z" fill="#E8C30C"/>
</g>
<g id="Group_3">
<g id="Group_4">
<g id="Group_5">
<path id="Vector_8" d="M64.7917 52.025L64.043 54.0753H61.2617L65.8619 42.1826H69.036L73.6184 54.0753H70.855L70.105 52.025H64.7917ZM69.4097 49.8323L67.4483 44.3766L65.4692 49.8323H69.4097Z" fill="#E8C30C"/>
<path id="Vector_9" d="M73.9014 54.2712H70.7173L69.9686 52.2209H64.9285L64.1798 54.2712H60.9766L65.7281 41.9883H69.1703L73.9014 54.2712ZM70.9893 53.881H73.332L68.9008 42.3785H65.995L61.546 53.881H63.9065L64.6552 51.8307H70.2418L70.9893 53.881ZM69.6864 50.0282H65.1904L67.4492 43.8022L69.6864 50.0282ZM65.7471 49.638H69.1309L67.4466 44.9513L65.7471 49.638Z" fill="#E8C30C"/>
</g>
<g id="Group_6">
<path id="Vector_10" d="M74.7031 47.4613C75.0946 46.7837 75.6297 46.2486 76.3251 45.8571C77.0204 45.4643 77.8047 45.2686 78.6792 45.2686C79.5169 45.2686 80.2122 45.4109 80.7651 45.7147C81.3359 46.0173 81.7808 46.3922 82.1024 46.8384L80.6228 48.2112C80.1944 47.5871 79.5881 47.2846 78.8038 47.2846C78.1085 47.2846 77.5555 47.5159 77.1271 47.9799C76.6988 48.4438 76.4852 49.0502 76.4852 49.7989C76.4852 50.5476 76.6988 51.1539 77.1271 51.6179C77.5555 52.0818 78.1263 52.3132 78.8203 52.3132C79.1953 52.3132 79.5334 52.2242 79.8372 52.064C80.1397 51.9039 80.4079 51.6713 80.6215 51.3687L82.1011 52.7415C81.7795 53.1877 81.3346 53.5614 80.7638 53.8652C80.2109 54.1678 79.5156 54.3114 78.6779 54.3114C77.8047 54.3114 77.0204 54.1156 76.3238 53.7229C75.6285 53.3313 75.0933 52.7962 74.7018 52.1187C74.309 51.4412 74.1133 50.6569 74.1133 49.7823C74.1133 48.9078 74.309 48.1248 74.7018 47.446V47.4613H74.7031Z" fill="#E8C30C"/>
<path id="Vector_11" d="M78.6803 54.5025C77.7765 54.5025 76.9528 54.2966 76.2308 53.8885C75.5165 53.4856 74.9457 52.9212 74.5351 52.2119C74.1271 51.5077 73.9199 50.6891 73.9199 49.779C73.9199 48.8688 74.1271 48.0502 74.5351 47.346L74.8987 46.7168V46.8249C75.261 46.3634 75.7071 45.9821 76.2296 45.6872C76.9516 45.2804 77.7753 45.0732 78.679 45.0732C79.5701 45.0732 80.2832 45.227 80.859 45.5436C81.4514 45.8588 81.9242 46.2554 82.2611 46.7244L82.3615 46.8643L80.5896 48.5078L80.4612 48.321C80.0722 47.7541 79.5307 47.4782 78.8036 47.4782C78.1655 47.4782 77.6634 47.6854 77.2706 48.1112C76.8791 48.5358 76.6808 49.1027 76.6808 49.798C76.6808 50.4933 76.8791 51.0603 77.2706 51.4848C77.6583 51.9043 78.1795 52.1179 78.8214 52.1179C79.1506 52.1179 79.4621 52.0416 79.7468 51.8916C80.0303 51.7416 80.2718 51.5281 80.4624 51.256L80.5908 51.0743L82.3602 52.7166L82.2598 52.8564C81.923 53.3242 81.4501 53.722 80.8552 54.0385C80.2845 54.35 79.5714 54.5025 78.6803 54.5025ZM74.7487 47.7744C74.4589 48.3655 74.3114 49.0379 74.3114 49.779C74.3114 50.6192 74.5008 51.373 74.8733 52.0174C75.2546 52.6759 75.7605 53.1767 76.4228 53.5492C77.085 53.9229 77.8452 54.1123 78.6803 54.1123C79.504 54.1123 80.1548 53.9737 80.6722 53.6902C81.1552 53.4335 81.5467 53.1221 81.8403 52.761L80.6468 51.6539C80.4446 51.8941 80.2044 52.0886 79.9298 52.2335C79.5892 52.414 79.2167 52.5056 78.8227 52.5056C78.0676 52.5056 77.4499 52.2501 76.9859 51.748C76.5257 51.2497 76.2919 50.5925 76.2919 49.7968C76.2919 49.001 76.5257 48.3439 76.9859 47.8456C77.4499 47.3422 78.0625 47.088 78.8049 47.088C79.5777 47.088 80.198 47.3676 80.6493 47.9193L81.8403 46.8147C81.5467 46.4537 81.1552 46.1423 80.6747 45.8868C80.1548 45.602 79.504 45.4635 78.6803 45.4635C77.8452 45.4635 77.085 45.6529 76.4228 46.0266C75.7605 46.4003 75.2546 46.9011 74.8733 47.5596L74.7487 47.7744Z" fill="#E8C30C"/>
</g>
<g id="Group_7">
<path id="Vector_12" d="M83.6015 47.4613C83.993 46.7837 84.5282 46.2486 85.2235 45.8571C85.9188 45.4656 86.7031 45.2686 87.5776 45.2686C88.4153 45.2686 89.1106 45.4109 89.6635 45.7147C90.2343 46.0173 90.6792 46.3922 91.0008 46.8384L89.5212 48.2112C89.0928 47.5871 88.4865 47.2846 87.7022 47.2846C87.0069 47.2846 86.4539 47.5159 86.0256 47.9799C85.5972 48.4438 85.3836 49.0502 85.3836 49.7989C85.3836 50.5476 85.5972 51.1539 86.0256 51.6179C86.4539 52.0818 87.0247 52.3132 87.7187 52.3132C88.0937 52.3132 88.4318 52.2242 88.7356 52.064C89.0382 51.9039 89.3064 51.6713 89.5199 51.3687L90.9995 52.7415C90.6779 53.1877 90.233 53.5614 89.6623 53.8652C89.1093 54.1678 88.414 54.3114 87.5764 54.3114C86.7031 54.3114 85.9188 54.1156 85.2222 53.7229C84.5269 53.3313 83.9918 52.7962 83.6002 52.1187C83.2075 51.4412 83.0117 50.6569 83.0117 49.7823C83.0117 48.9078 83.2075 48.1248 83.6002 47.446V47.4613H83.6015Z" fill="#E8C30C"/>
<path id="Vector_13" d="M87.5768 54.5025C86.673 54.5025 85.8493 54.2966 85.1273 53.8885C84.4129 53.4856 83.8422 52.9212 83.4316 52.2119C83.0236 51.5077 82.8164 50.6891 82.8164 49.779C82.8164 48.8688 83.0236 48.0502 83.4316 47.346L83.7952 46.7168V46.8249C84.1575 46.3634 84.6036 45.9821 85.1261 45.6872C85.8481 45.2804 86.6718 45.0732 87.5755 45.0732C88.4666 45.0732 89.1797 45.227 89.7555 45.5436C90.3479 45.8588 90.8207 46.2554 91.1576 46.7244L91.258 46.8643L89.486 48.5078L89.3577 48.321C88.9687 47.7541 88.4272 47.4782 87.7001 47.4782C87.062 47.4782 86.5599 47.6854 86.1671 48.1112C85.7756 48.5358 85.5773 49.1027 85.5773 49.798C85.5773 50.4933 85.7756 51.0603 86.1671 51.4848C86.5548 51.9043 87.076 52.1179 87.7179 52.1179C88.0471 52.1179 88.3585 52.0416 88.6433 51.8916C88.9267 51.7416 89.1683 51.5281 89.3589 51.256L89.4873 51.0743L91.2567 52.7166L91.1563 52.8564C90.8195 53.3242 90.3466 53.722 89.7517 54.0385C89.1797 54.35 88.4666 54.5025 87.5768 54.5025ZM83.6439 47.7744C83.3541 48.3655 83.2066 49.0379 83.2066 49.779C83.2066 50.6192 83.396 51.373 83.7685 52.0174C84.1498 52.6759 84.6557 53.1767 85.318 53.5492C85.9803 53.9229 86.7404 54.1123 87.5755 54.1123C88.3992 54.1123 89.05 53.9737 89.5674 53.6902C90.0504 53.4335 90.4419 53.1221 90.7356 52.761L89.542 51.6539C89.3399 51.8941 89.0996 52.0886 88.8251 52.2335C88.4844 52.414 88.1119 52.5056 87.7179 52.5056C86.9628 52.5056 86.3451 52.2501 85.8811 51.748C85.421 51.2497 85.1871 50.5925 85.1871 49.7968C85.1871 49.001 85.421 48.3439 85.8811 47.8456C86.3451 47.3422 86.9578 47.088 87.7001 47.088C88.4729 47.088 89.0933 47.3676 89.5445 47.9193L90.7356 46.8147C90.4419 46.4537 90.0504 46.1423 89.5699 45.8868C89.05 45.602 88.3992 45.4635 87.5755 45.4635C86.7404 45.4635 85.9803 45.6529 85.318 46.0266C84.6557 46.4003 84.1498 46.9011 83.7685 47.5596L83.6439 47.7744Z" fill="#E8C30C"/>
</g>
<g id="Group_8">
<path id="Vector_14" d="M92.4428 47.5859C92.8177 46.9084 93.3516 46.3555 94.0291 45.9462C94.6889 45.5356 95.4553 45.3398 96.3299 45.3398C97.1676 45.3398 97.9163 45.5356 98.576 45.9284C99.2357 46.3212 99.753 46.8728 100.109 47.5872C100.466 48.3003 100.644 49.1202 100.644 50.0481V50.5477H94.244C94.3151 51.1362 94.5643 51.6002 95.0105 51.9739C95.4566 52.3489 96.0274 52.5446 96.7227 52.5446C97.151 52.5446 97.5781 52.4734 97.9887 52.3133C98.4349 52.1531 98.773 51.9383 99.0412 51.6714L100.04 53.1332C99.5942 53.5437 99.0781 53.8285 98.4717 54.0242C97.8298 54.22 97.1701 54.3268 96.4926 54.3268C95.6193 54.3268 94.8338 54.131 94.1385 53.756C93.4431 53.381 92.8902 52.8472 92.4987 52.1696C92.1059 51.4921 91.9102 50.69 91.9102 49.7799C91.9102 48.9422 92.1059 48.1935 92.4809 47.4982L92.4428 47.5859ZM94.8503 47.7105C94.4753 48.1211 94.2796 48.566 94.2262 49.0477H98.4692C98.4336 48.566 98.2379 48.1211 97.8807 47.7283C97.5235 47.3355 97.0074 47.1398 96.3299 47.1398C95.688 47.1398 95.1884 47.3355 94.8325 47.7283L94.8503 47.7105Z" fill="#E8C30C"/>
<path id="Vector_15" d="M96.4891 54.5204C95.5981 54.5204 94.7744 54.3208 94.0422 53.9268C93.3138 53.5353 92.7367 52.976 92.3262 52.2654C91.9181 51.5612 91.7109 50.7248 91.7109 49.7791C91.7109 48.9236 91.9054 48.1469 92.3046 47.4046L92.316 47.4097C92.7037 46.7385 93.2452 46.1907 93.9265 45.7788C94.6028 45.3581 95.4112 45.1445 96.3277 45.1445C97.1971 45.1445 97.9865 45.3517 98.6742 45.7598C99.3721 46.1754 99.9136 46.7601 100.282 47.4987C100.651 48.2359 100.838 49.0927 100.838 50.046V50.7401H94.4718C94.5659 51.1773 94.7795 51.5243 95.1341 51.8218C95.5485 52.1701 96.0824 52.3468 96.7205 52.3468C97.1425 52.3468 97.5454 52.273 97.9153 52.1281C98.3234 51.9807 98.645 51.7862 98.9005 51.5294L99.067 51.3629L100.294 53.159L100.169 53.2734C99.7153 53.6916 99.1776 53.9967 98.528 54.2064C97.8492 54.4162 97.1641 54.5204 96.4891 54.5204ZM92.6045 47.6766C92.2677 48.3338 92.1024 49.0228 92.1024 49.7791C92.1024 50.6549 92.2918 51.4265 92.6643 52.0709C93.038 52.7179 93.5643 53.2264 94.2278 53.5836C94.9015 53.9471 95.6629 54.1302 96.4891 54.1302C97.1247 54.1302 97.7717 54.031 98.4111 53.8353C98.9437 53.6637 99.3937 53.4209 99.7788 53.098L99.0047 51.9642C98.7403 52.1853 98.4276 52.3595 98.0539 52.4942C97.6433 52.6544 97.1933 52.737 96.7217 52.737C95.9896 52.737 95.3718 52.5298 94.885 52.1205C94.4007 51.7137 94.1274 51.2053 94.0498 50.5685L94.0231 50.3498H100.449V50.046C100.449 49.1537 100.276 48.3554 99.9339 47.6728C99.5983 47.0017 99.1077 46.4716 98.4759 46.0953C97.8492 45.7229 97.1272 45.5348 96.329 45.5348C95.4748 45.5348 94.7566 45.7229 94.1325 46.1119C93.4816 46.5059 92.9706 47.0334 92.6134 47.6804L92.6045 47.6766ZM98.6793 49.2439H94.0079L94.032 49.0266C94.0905 48.499 94.3117 48.0186 94.6892 47.5978L94.6879 47.5965C95.082 47.1644 95.6337 46.9445 96.3302 46.9445C97.0624 46.9445 97.6319 47.1644 98.0259 47.5965C98.4098 48.0198 98.6246 48.5029 98.664 49.0329L98.6793 49.2439ZM94.454 48.8524H98.2458C98.1785 48.4927 98.0069 48.1584 97.7348 47.8597C97.4145 47.5063 96.9544 47.3347 96.3277 47.3347C95.7481 47.3347 95.3108 47.4999 94.9917 47.8406L94.993 47.8419C94.7121 48.1508 94.5341 48.4825 94.454 48.8524Z" fill="#E8C30C"/>
</g>
<g id="Group_9">
<path id="Vector_16" d="M102.464 51.4005C102.802 51.703 103.266 51.9712 103.819 52.2026C104.408 52.4339 104.943 52.5598 105.441 52.5598C105.923 52.5598 106.296 52.4886 106.529 52.3284C106.778 52.1683 106.904 51.9534 106.904 51.6865C106.904 51.4196 106.762 51.2047 106.476 51.0624C106.209 50.9378 105.763 50.7954 105.174 50.6709C104.479 50.5463 103.908 50.4039 103.462 50.2425C103.016 50.0823 102.624 49.8319 102.285 49.4582C101.947 49.1201 101.785 48.6205 101.785 47.9786C101.785 47.4969 101.928 47.052 102.214 46.6414C102.516 46.2308 102.927 45.8927 103.444 45.6435C103.979 45.3944 104.603 45.2686 105.334 45.2686C106.671 45.2686 107.831 45.6601 108.811 46.4456L107.92 47.9964C107.653 47.7104 107.296 47.4791 106.832 47.2833C106.385 47.0875 105.887 46.9973 105.37 46.9973C104.959 46.9973 104.639 47.0685 104.39 47.2108C104.141 47.3532 104.015 47.5502 104.015 47.7994C104.015 48.0307 104.157 48.2278 104.425 48.3523C104.692 48.4769 105.103 48.6015 105.656 48.7273C106.333 48.8519 106.904 48.9942 107.386 49.1557C107.868 49.3158 108.259 49.5841 108.598 49.9578C108.938 50.3327 109.116 50.8488 109.116 51.5085C109.116 52.3284 108.794 52.9881 108.136 53.5055C107.476 54.0228 106.567 54.272 105.408 54.272C104.677 54.272 103.964 54.1474 103.269 53.9148C102.573 53.6835 102.02 53.3619 101.574 52.9526L102.554 51.3662L102.464 51.4005Z" fill="#E8C30C"/>
<path id="Vector_17" d="M105.404 54.4669C104.674 54.4669 103.932 54.3436 103.203 54.1008C102.494 53.8644 101.915 53.5352 101.439 53.0966L101.32 52.9873L102.253 51.4772L102.097 51.3374L103.029 50.9649L102.762 51.3971C103.055 51.6221 103.434 51.8331 103.893 52.0251C104.475 52.2539 104.982 52.367 105.44 52.367C105.899 52.367 106.228 52.3009 106.416 52.17C106.616 52.0416 106.706 51.8891 106.706 51.6882C106.706 51.4937 106.602 51.3463 106.386 51.2382C106.114 51.1111 105.655 50.9738 105.131 50.862C104.435 50.7374 103.847 50.59 103.394 50.4273C102.897 50.248 102.486 49.9747 102.138 49.5896C101.775 49.2273 101.589 48.6833 101.589 47.979C101.589 47.4592 101.745 46.9723 102.051 46.53C102.382 46.0825 102.82 45.7266 103.357 45.4673C103.925 45.2016 104.571 45.0732 105.332 45.0732C106.709 45.0732 107.92 45.4838 108.931 46.2923L109.062 46.3965L107.956 48.321L107.775 48.129C107.53 47.8672 107.195 47.6486 106.754 47.4617C106.346 47.2825 105.881 47.1922 105.369 47.1922C104.996 47.1922 104.707 47.2532 104.485 47.3803C104.238 47.5214 104.21 47.6867 104.21 47.7998C104.21 47.9956 104.371 48.1125 104.507 48.1761C104.761 48.2943 105.162 48.4163 105.698 48.5371C106.368 48.6604 106.943 48.8027 107.446 48.9705C107.947 49.1383 108.371 49.418 108.741 49.8273C109.117 50.2429 109.309 50.8099 109.309 51.509C109.309 52.3873 108.955 53.1106 108.254 53.6597C107.559 54.2025 106.627 54.4669 105.404 54.4669ZM101.824 52.9149C102.236 53.2631 102.729 53.5301 103.326 53.7297C104.016 53.9597 104.716 54.0767 105.403 54.0767C106.536 54.0767 107.389 53.839 108.01 53.3521C108.62 52.8742 108.917 52.2717 108.917 51.509C108.917 50.909 108.759 50.4311 108.45 50.0891C108.126 49.7307 107.756 49.4866 107.32 49.3404C106.841 49.1803 106.268 49.0392 105.617 48.9197C105.037 48.7888 104.621 48.6616 104.339 48.5294C104.007 48.3744 103.817 48.1087 103.817 47.7998C103.817 47.5774 103.898 47.2659 104.29 47.0422C104.572 46.8808 104.925 46.802 105.368 46.802C105.935 46.802 106.453 46.9037 106.908 47.1045C107.297 47.2685 107.616 47.4592 107.873 47.6829L108.556 46.4956C107.642 45.8105 106.559 45.4635 105.332 45.4635C104.629 45.4635 104.038 45.5804 103.524 45.8194C103.048 46.0495 102.658 46.366 102.369 46.7562C102.112 47.1261 101.98 47.5392 101.98 47.9778C101.98 48.5752 102.129 49.0265 102.422 49.3201C102.733 49.6633 103.092 49.9023 103.527 50.0586C103.96 50.215 104.525 50.3561 105.207 50.4781C105.773 50.5976 106.25 50.7425 106.557 50.8849C107.005 51.1086 107.098 51.4442 107.098 51.6857C107.098 52.0174 106.937 52.2958 106.634 52.4916C106.381 52.667 105.988 52.7547 105.44 52.7547C104.933 52.7547 104.379 52.6339 103.746 52.3848C103.27 52.1852 102.871 51.9653 102.556 51.7289L101.824 52.9149Z" fill="#E8C30C"/>
</g>
<g id="Group_10">
<path id="Vector_18" d="M110.968 51.4005C111.306 51.703 111.77 51.9712 112.323 52.2026C112.911 52.4339 113.447 52.5598 113.945 52.5598C114.427 52.5598 114.8 52.4886 115.033 52.3284C115.282 52.1683 115.408 51.9534 115.408 51.6865C115.408 51.4196 115.266 51.2047 114.98 51.0624C114.713 50.9378 114.267 50.7954 113.678 50.6709C112.983 50.5463 112.412 50.4039 111.966 50.2425C111.52 50.0823 111.128 49.8319 110.789 49.4582C110.451 49.1201 110.289 48.6205 110.289 47.9786C110.289 47.4969 110.431 47.052 110.718 46.6414C111.02 46.2308 111.431 45.8927 111.948 45.6435C112.483 45.3944 113.107 45.2686 113.838 45.2686C115.175 45.2686 116.335 45.6601 117.315 46.4456L116.424 47.9964C116.157 47.7104 115.799 47.4791 115.336 47.2833C114.889 47.0875 114.391 46.9973 113.874 46.9973C113.463 46.9973 113.143 47.0685 112.894 47.2108C112.645 47.3532 112.519 47.5502 112.519 47.7994C112.519 48.0307 112.661 48.2278 112.929 48.3523C113.196 48.4769 113.607 48.6015 114.16 48.7273C114.837 48.8519 115.408 48.9942 115.89 49.1557C116.371 49.3158 116.763 49.5841 117.102 49.9578C117.442 50.3327 117.62 50.8488 117.62 51.5085C117.62 52.3284 117.298 52.9881 116.64 53.5055C115.98 54.0228 115.071 54.272 113.912 54.272C113.181 54.272 112.468 54.1474 111.773 53.9148C111.077 53.6835 110.524 53.3619 110.078 52.9526L111.058 51.3662L110.968 51.4005Z" fill="#E8C30C"/>
<path id="Vector_19" d="M113.908 54.4669C113.177 54.4669 112.436 54.3436 111.707 54.1008C110.997 53.8644 110.419 53.5352 109.942 53.0966L109.824 52.9873L110.757 51.4772L110.601 51.3374L111.533 50.9649L111.266 51.3971C111.559 51.6221 111.938 51.8331 112.397 52.0251C112.979 52.2539 113.486 52.367 113.944 52.367C114.403 52.367 114.732 52.3009 114.92 52.17C115.12 52.0416 115.21 51.8891 115.21 51.6882C115.21 51.4937 115.106 51.3463 114.89 51.2382C114.618 51.1111 114.159 50.9738 113.635 50.862C112.938 50.7374 112.351 50.59 111.897 50.4273C111.4 50.248 110.99 49.9747 110.642 49.5896C110.279 49.2273 110.092 48.6833 110.092 47.979C110.092 47.4592 110.249 46.9723 110.555 46.53C110.886 46.0825 111.324 45.7266 111.861 45.4673C112.429 45.2016 113.075 45.0732 113.836 45.0732C115.213 45.0732 116.424 45.4838 117.434 46.2923L117.565 46.3965L116.46 48.321L116.279 48.129C116.034 47.8672 115.699 47.6486 115.258 47.4617C114.85 47.2825 114.385 47.1922 113.873 47.1922C113.5 47.1922 113.211 47.2532 112.989 47.3803C112.741 47.5214 112.714 47.6867 112.714 47.7998C112.714 47.9956 112.875 48.1125 113.011 48.1761C113.265 48.2943 113.666 48.4163 114.202 48.5371C114.872 48.6604 115.446 48.8027 115.95 48.9705C116.451 49.1383 116.875 49.418 117.245 49.8273C117.621 50.2429 117.813 50.8099 117.813 51.509C117.813 52.3873 117.459 53.1106 116.758 53.6597C116.063 54.2025 115.131 54.4669 113.908 54.4669ZM110.328 52.9149C110.739 53.2631 111.233 53.5301 111.83 53.7297C112.52 53.9597 113.219 54.0767 113.907 54.0767C115.04 54.0767 115.893 53.839 116.514 53.3521C117.124 52.8742 117.421 52.2717 117.421 51.509C117.421 50.909 117.263 50.4311 116.954 50.0891C116.63 49.7307 116.26 49.4866 115.824 49.3404C115.345 49.1803 114.771 49.0392 114.121 48.9197C113.541 48.7888 113.125 48.6616 112.843 48.5294C112.511 48.3744 112.321 48.1087 112.321 47.7998C112.321 47.5774 112.402 47.2659 112.794 47.0422C113.076 46.8808 113.429 46.802 113.872 46.802C114.438 46.802 114.957 46.9037 115.412 47.1045C115.801 47.2685 116.12 47.4592 116.377 47.6829L117.06 46.4956C116.146 45.8105 115.063 45.4635 113.837 45.4635C113.134 45.4635 112.543 45.5804 112.03 45.8194C111.553 46.0495 111.163 46.366 110.874 46.7562C110.617 47.1261 110.485 47.5392 110.485 47.9778C110.485 48.5752 110.634 49.0265 110.928 49.3201C111.238 49.6633 111.597 49.9023 112.032 50.0586C112.466 50.215 113.03 50.3561 113.713 50.4781C114.278 50.5976 114.755 50.7425 115.063 50.8849C115.51 51.1086 115.603 51.4442 115.603 51.6857C115.603 52.0174 115.443 52.2958 115.139 52.4916C114.886 52.667 114.493 52.7547 113.945 52.7547C113.438 52.7547 112.884 52.6339 112.251 52.3848C111.775 52.1852 111.376 51.9653 111.061 51.7289L110.328 52.9149Z" fill="#E8C30C"/>
</g>
</g>
</g>
</g>
</svg>
