<svg width="118" height="58" viewBox="0 0 118 58" fill="none" xmlns="http://www.w3.org/2000/svg">
<g id="Group">
<g id="Group_2">
<path id="Vector" d="M39.8265 0H30.5371V5.45951H39.8265V0Z" fill="#343868"/>
<path id="Vector_2" d="M4.82903 23.9683C7.12851 26.1762 10.5771 27.924 14.7172 27.924C16.465 27.924 18.12 27.3266 18.12 26.1304C18.12 24.9343 16.8323 24.3369 13.7969 23.7839C8.73776 22.8649 1.01182 21.6688 1.01182 13.9886C1.01182 8.7922 5.33494 4.05469 13.7511 4.05469C18.7645 4.05469 23.2706 5.4809 26.7662 8.33205L21.7999 14.9089C19.1318 12.8852 15.6832 11.8734 13.2452 11.8734C10.9457 11.8734 10.4398 12.7009 10.4398 13.4827C10.4398 14.6788 11.6817 15.0919 14.9472 15.6436C20.0064 16.5169 27.5022 17.9888 27.5022 25.0716C27.5022 31.8315 22.4889 35.7415 14.257 35.7415C7.72594 35.7415 3.26554 33.8106 0 30.8667L4.82903 23.9683Z" fill="#343868"/>
<path id="Vector_3" d="M30.5371 35.1902V7.82275H39.8265V35.1902H30.5371Z" fill="#343868"/>
<path id="Vector_4" d="M44.793 30.1665V35.19H49.819L44.793 30.1665Z" fill="#343868"/>
<path id="Vector_5" d="M69.8652 35.1915H79.1547V19.9761L69.8652 29.2655V35.1915Z" fill="#343868"/>
<path id="Vector_6" d="M107.108 35.1901L105.912 31.2356H94.1384L92.9423 35.1901H82.8711L94.1842 4.51514H105.866L117.179 35.1901H107.108ZM100.025 12.7012L96.5294 23.5084H103.519L100.025 12.7012Z" fill="#343868"/>
<path id="Vector_7" d="M79.1555 0.0114402V12.9783L69.8661 22.269L56.945 35.19L50.4495 28.6958L50.4521 28.692L44.793 23.0329V10.0521L44.7981 10.047L56.9463 22.1965L79.1441 0L79.1555 0.0114402Z" fill="#2298B5"/>
</g>
<g id="Group_3">
<g id="Group_4">
<path id="Vector_8" d="M94.0038 42.3696C94.8199 42.3696 95.5291 42.5463 96.1495 42.8831C96.752 43.22 97.2134 43.6814 97.5147 44.2483C97.8159 44.833 97.9761 45.4711 97.9761 46.1626C97.9761 46.8541 97.8159 47.4922 97.4981 48.0592C97.1791 48.6439 96.7177 49.0875 96.1151 49.4244C95.5304 49.7612 94.8033 49.9214 93.9695 49.9214H90.9556V54.1593H88.4375V42.334L94.0038 42.3696ZM93.6669 44.533H90.9899V47.7948H93.6669C94.1805 47.7948 94.5885 47.6346 94.9254 47.3334C95.2444 47.0321 95.4033 46.6419 95.4033 46.1626C95.4033 45.6834 95.2431 45.2945 94.9076 44.9919C94.5707 44.6919 94.1449 44.533 93.6669 44.533Z" fill="#2298B5"/>
<path id="Vector_9" d="M91.148 54.3538H88.2422V42.1382L94.0042 42.175C94.8317 42.175 95.5842 42.3555 96.2414 42.7127C96.8808 43.0699 97.3651 43.5555 97.6854 44.158C98.007 44.7821 98.1685 45.4558 98.1685 46.1639C98.1685 46.8909 97.9994 47.5621 97.6651 48.1557C97.3359 48.7595 96.8579 49.2311 96.2071 49.5946C95.6071 49.9404 94.8533 50.1158 93.9674 50.1158H91.148V54.3538ZM88.6312 53.9661H90.7603V49.7281H93.9686C94.786 49.7281 95.4749 49.5692 96.0177 49.2578C96.605 48.9298 97.0321 48.5078 97.327 47.9676C97.6295 47.4299 97.782 46.8236 97.782 46.1639C97.782 45.5181 97.6346 44.9042 97.3422 44.3385C97.0588 43.8059 96.6253 43.3725 96.0546 43.0534C95.4482 42.7242 94.7771 42.564 94.0042 42.564H94.003L88.6312 42.5297V53.9661ZM93.6674 47.9892H90.7959V44.3385H93.6674C94.1911 44.3385 94.6652 44.5152 95.0377 44.8482C95.4101 45.1813 95.5982 45.6236 95.5982 46.1626C95.5982 46.6939 95.4165 47.135 95.0593 47.4744C94.6716 47.8214 94.2165 47.9892 93.6674 47.9892ZM91.1836 47.6002H93.6661C94.1161 47.6002 94.486 47.4655 94.7961 47.1884C95.0733 46.9265 95.2093 46.5897 95.2093 46.1626C95.2093 45.7329 95.0682 45.3974 94.7771 45.1368C94.4758 44.8673 94.0919 44.7249 93.6648 44.7249H91.1823V47.6002H91.1836Z" fill="#2298B5"/>
</g>
<g id="Group_5">
<path id="Vector_10" d="M104.216 53.2734C103.914 53.6103 103.524 53.876 103.045 54.0717C102.583 54.2662 102.07 54.3552 101.503 54.3552C101.024 54.3552 100.564 54.2484 100.102 54.0361C99.6586 53.8238 99.2683 53.5048 98.9671 53.079C98.6658 52.6709 98.5234 52.1574 98.5234 51.5358C98.5234 50.9155 98.6658 50.4007 98.9671 49.9939C99.2683 49.5872 99.6408 49.2846 100.084 49.0901C100.51 48.8957 100.988 48.8067 101.503 48.8067C102.088 48.8067 102.62 48.8957 103.098 49.0723C103.558 49.249 103.932 49.516 104.233 49.8528V48.6643C104.233 48.2207 104.055 47.866 103.719 47.6004C103.382 47.3347 102.938 47.2101 102.353 47.2101C101.414 47.2101 100.58 47.547 99.853 48.2207L99.0027 46.7131C99.5162 46.2695 100.084 45.9326 100.74 45.7026C101.361 45.4725 102.034 45.3657 102.744 45.3657C103.861 45.3657 104.747 45.6136 105.438 46.1284C106.13 46.6432 106.485 47.4758 106.485 48.6287V54.1607H104.233V53.2747H104.216V53.2734ZM104.216 51.0045C104.038 50.7744 103.79 50.5964 103.471 50.4731C103.134 50.3486 102.797 50.2786 102.425 50.2786C101.964 50.2786 101.574 50.4032 101.273 50.6333C100.972 50.8634 100.811 51.1824 100.811 51.5727C100.811 51.9451 100.972 52.2642 101.273 52.4942C101.574 52.7243 101.947 52.8311 102.425 52.8311C102.797 52.8311 103.134 52.7599 103.471 52.6366C103.79 52.512 104.038 52.3353 104.216 52.1053V51.0413V51.0045Z" fill="#2298B5"/>
<path id="Vector_11" d="M101.503 54.5495C100.997 54.5495 100.511 54.4389 100.021 54.2127C99.5288 53.9762 99.122 53.633 98.8093 53.1919C98.4877 52.7572 98.3301 52.2144 98.3301 51.5369C98.3301 50.8594 98.4877 50.3166 98.8118 49.8794C99.1322 49.4459 99.5338 49.1205 100.007 48.9133C100.44 48.715 100.945 48.6133 101.504 48.6133C102.109 48.6133 102.67 48.7074 103.167 48.8917C103.49 49.0163 103.782 49.1853 104.04 49.3989V48.6654C104.04 48.2866 103.896 47.9879 103.599 47.754C103.298 47.5163 102.902 47.4057 102.354 47.4057C101.47 47.4057 100.673 47.7286 99.9864 48.3642L99.8059 48.5307L98.7559 46.671L98.8767 46.5668C99.422 46.0965 100.012 45.7545 100.677 45.5207C101.297 45.2906 101.993 45.1724 102.745 45.1724C103.912 45.1724 104.831 45.4342 105.555 45.9732C106.301 46.5287 106.679 47.4223 106.679 48.6286V54.3538H104.039V53.7106C103.776 53.9279 103.468 54.1084 103.118 54.2508C102.646 54.4516 102.116 54.5495 101.503 54.5495ZM101.503 48.9997C101.001 48.9997 100.551 49.0887 100.166 49.2654C99.7537 49.4472 99.4042 49.7306 99.1245 50.1082C98.8512 50.4768 98.719 50.9433 98.719 51.5357C98.719 52.1267 98.8512 52.5945 99.1245 52.9631C99.4016 53.3546 99.7588 53.6546 100.187 53.8606C100.623 54.0627 101.055 54.1605 101.504 54.1605C102.065 54.1605 102.544 54.0728 102.971 53.8923C103.422 53.708 103.792 53.4576 104.072 53.1436L104.13 53.0788H104.429V53.9648H106.292V48.6286C106.292 47.5507 105.967 46.7626 105.325 46.2846C104.669 45.7978 103.826 45.5601 102.746 45.5601C102.042 45.5601 101.391 45.6694 100.81 45.8855C100.237 46.0863 99.7271 46.3723 99.2529 46.7587L99.9063 47.9167C100.624 47.3193 101.447 47.0155 102.354 47.0155C102.986 47.0155 103.472 47.1566 103.84 47.4477C104.231 47.7553 104.429 48.1646 104.429 48.6642V50.3599L104.091 49.9811C103.796 49.6518 103.45 49.4141 103.031 49.2527C102.577 49.0849 102.062 48.9997 101.503 48.9997ZM102.424 53.0241C101.901 53.0241 101.486 52.9008 101.155 52.6479C100.804 52.3797 100.617 52.0072 100.617 51.5712C100.617 51.1251 100.802 50.7463 101.155 50.4781C101.496 50.2162 101.924 50.084 102.424 50.084C102.801 50.084 103.154 50.1501 103.538 50.2912C103.891 50.4285 104.171 50.6293 104.369 50.8861L104.41 50.9382V52.1699L104.369 52.2221C104.171 52.4801 103.893 52.6797 103.542 52.817C103.154 52.958 102.801 53.0241 102.424 53.0241ZM102.424 50.4717C102.011 50.4717 101.663 50.5772 101.39 50.7857C101.134 50.9814 101.005 51.2458 101.005 51.5712C101.005 51.8814 101.138 52.1471 101.39 52.339C101.654 52.5411 101.983 52.6365 102.424 52.6365C102.754 52.6365 103.065 52.578 103.403 52.4534C103.66 52.353 103.868 52.2119 104.021 52.0352V51.073C103.868 50.895 103.66 50.7539 103.401 50.6535C103.065 50.5289 102.754 50.4717 102.424 50.4717Z" fill="#2298B5"/>
</g>
<g id="Group_6">
<path id="Vector_12" d="M110.207 55.4902C110.401 55.4012 110.544 55.2423 110.65 55.011L110.969 54.2839L107.494 45.5957H109.905L112.139 51.5535L114.374 45.5957H116.803L112.778 55.5601C112.477 56.3228 112.051 56.8541 111.538 57.1554C111.006 57.4566 110.333 57.6168 109.534 57.6346C109.374 57.6346 109.18 57.6168 108.948 57.599C108.754 57.5812 108.576 57.5634 108.417 57.51L108.754 55.4889C108.984 55.5779 109.215 55.6313 109.463 55.6313C109.745 55.6313 109.994 55.5779 110.207 55.4902Z" fill="#2298B5"/>
<path id="Vector_13" d="M109.537 57.8289C109.39 57.8289 109.224 57.8162 109.034 57.801L108.933 57.7933C108.711 57.773 108.529 57.7539 108.355 57.6955L108.197 57.6433L108.6 55.2244L108.823 55.3096C109.051 55.3973 109.255 55.4379 109.462 55.4379C109.704 55.4379 109.927 55.396 110.129 55.3121C110.276 55.2447 110.385 55.124 110.474 54.9295L110.759 54.2812L107.207 45.4023H110.039L112.138 51.0004L114.238 45.4023H117.089L112.956 55.6337C112.644 56.4231 112.199 56.9925 111.633 57.3243C111.075 57.6408 110.37 57.8099 109.537 57.8289ZM108.637 57.3662C108.735 57.384 108.843 57.3955 108.966 57.4056L109.064 57.4133C109.247 57.4273 109.405 57.44 109.533 57.44C110.296 57.4234 110.94 57.2709 111.441 56.9862C111.928 56.7014 112.317 56.1968 112.598 55.4875L116.516 45.7888H114.508L112.14 52.105L109.772 45.7888H107.782L111.181 54.2863L110.828 55.0884C110.698 55.3718 110.521 55.56 110.288 55.6655L110.282 55.668C109.876 55.8371 109.402 55.8854 108.908 55.7443L108.637 57.3662Z" fill="#2298B5"/>
</g>
</g>
</g>
</svg>
