<svg width="239" height="60" viewBox="0 0 239 60" fill="none" xmlns="http://www.w3.org/2000/svg">
<g id="Group 1000003066">
<path id="Vector" d="M0 0V59.9978H59.6881V0H0ZM47.7921 48.0368H11.896V11.961H47.7921V48.0368Z" fill="#2BAAE2"/>
<g id="Group">
<g id="Group_2">
<path id="Vector_2" d="M88.9273 14.2959H85.3663L78.7793 29.0446H82.3057L83.3757 26.519H90.8963L91.9663 29.0446H95.51L88.9295 14.2959H88.9273ZM84.6082 23.61L87.1468 17.6273L89.6616 23.61H84.6082Z" fill="#77787B"/>
<path id="Vector_3" d="M96.5176 29.0466V27.3397L103.687 17.1202H96.875V14.2979H108.089V15.7296L101.047 25.9708H108.258V29.0466H96.5176Z" fill="#77787B"/>
<path id="Vector_4" d="M114.36 14.2979H111.111V29.0487H114.36V14.2979Z" fill="#77787B"/>
<path id="Vector_5" d="M128.556 29.0466L121.262 19.6069L121.386 24.4524V29.0466H118.076V14.2979H120.883L128.285 23.8849L128.075 19.2473V14.2979H131.365V29.0466H128.556Z" fill="#77787B"/>
<path id="Vector_6" d="M138.265 29.0466V17.2264H133.801V14.2979H145.978V17.2264H141.514V29.0466H138.265Z" fill="#77787B"/>
<path id="Vector_7" d="M148.414 29.0466V14.2979H159.294V17.3108H151.622V20.1549H158.855V23.0401H151.622V26.0119H159.587V29.0466H148.414Z" fill="#77787B"/>
<path id="Vector_8" d="M162.609 29.0466V14.2979H165.878V26.0336H173.217V29.0466H162.609Z" fill="#77787B"/>
<path id="Vector_9" d="M175.631 29.0466V14.2979H186.511V17.3108H178.839V20.1549H186.069V23.0401H178.839V26.0119H186.803V29.0466H175.631Z" fill="#77787B"/>
<path id="Vector_10" d="M202.321 27.2553C200.812 28.7499 198.862 29.4257 196.681 29.4257C191.084 29.4257 188.861 25.8018 188.842 21.7773C188.822 17.9628 191.294 13.96 196.681 13.96C198.693 13.96 200.56 14.7397 202.068 16.2365L200.014 18.2813C199.133 17.417 197.855 17.0596 196.681 17.0596C193.35 17.0596 192.05 19.6502 192.069 21.8011C192.091 23.9499 193.243 26.3953 196.681 26.3953C197.855 26.3953 199.406 25.869 200.287 24.9831L202.321 27.2596V27.2553Z" fill="#77787B"/>
<path id="Vector_11" d="M211.402 13.9385C206.708 13.9385 203.48 16.8713 203.48 21.6713C203.48 26.4713 206.706 29.4042 211.402 29.4042C216.098 29.4042 219.323 26.4778 219.323 21.6713C219.323 16.8648 216.098 13.9385 211.402 13.9385ZM211.402 26.4367C208.61 26.4367 206.684 24.4331 206.684 21.6713C206.684 18.9096 208.612 16.8887 211.402 16.8887C214.192 16.8887 216.119 18.9746 216.119 21.6713C216.119 24.3681 214.25 26.4367 211.402 26.4367Z" fill="#77787B"/>
<path id="Vector_12" d="M234.966 18.8055L230.437 24.5369H229.852L225.47 18.7643V29.0683H222.199V14.3174H225.951L230.229 19.986L234.524 14.3174H238.235V29.0683H234.966V18.8055Z" fill="#77787B"/>
</g>
<g id="Group_3">
<path id="Vector_13" d="M182.553 40.4966V40.4511C182.553 38.9543 183.023 37.6828 183.961 36.6323C185.04 35.4345 186.517 34.8345 188.393 34.8345C188.404 34.8345 188.41 34.8345 188.414 34.8345C190.002 34.8345 191.384 35.4042 192.558 36.5435L190.691 38.3782C190.039 37.7565 189.279 37.4467 188.414 37.4467C187.468 37.4467 186.729 37.7825 186.196 38.4518C185.767 39.0171 185.555 39.6865 185.555 40.4554V40.5074C185.564 41.311 185.778 41.9803 186.196 42.511C186.703 43.1522 187.444 43.4727 188.414 43.4727C189.385 43.4727 190.227 43.111 190.938 42.3854L192.714 44.3825C191.583 45.498 190.149 46.0569 188.412 46.0569C186.437 46.0569 184.936 45.4958 183.913 44.3738C183.014 43.3926 182.562 42.0973 182.551 40.4922L182.553 40.4966Z" fill="#2BAAE2"/>
<path id="Vector_14" d="M193.918 45.784V35.0771H196.95V43.2021H202.073V45.7862H193.92L193.918 45.784Z" fill="#2BAAE2"/>
<path id="Vector_15" d="M202.803 40.4295C202.803 38.6967 203.357 37.3212 204.468 36.301C205.545 35.3154 206.962 34.8216 208.72 34.8237H208.751C210.542 34.8237 211.974 35.3111 213.048 36.288C214.149 37.2996 214.697 38.6793 214.697 40.4317C214.697 42.184 214.146 43.566 213.046 44.5754C211.976 45.5566 210.544 46.0461 208.749 46.0461C206.966 46.0461 205.538 45.5566 204.468 44.5754C203.357 43.5638 202.803 42.184 202.803 40.4317V40.4295ZM205.835 40.4295C205.835 41.3263 206.11 42.0541 206.663 42.6172C207.204 43.1804 207.9 43.462 208.751 43.462C209.626 43.462 210.334 43.1761 210.876 42.6042C211.402 42.0519 211.666 41.3284 211.666 40.4317C211.666 39.5154 211.402 38.7811 210.876 38.2288C210.354 37.6808 209.652 37.4079 208.772 37.4079H208.751C207.887 37.4079 207.185 37.6873 206.647 38.2439C206.106 38.8158 205.835 39.5458 205.835 40.4317V40.4295Z" fill="#2BAAE2"/>
<path id="Vector_16" d="M216.115 41.0427V35.0903H219.118V41.0427C219.118 42.6304 219.798 43.4275 221.16 43.4319C222.516 43.4319 223.194 42.6456 223.194 41.073V35.0925H226.196V41.073C226.196 41.0882 226.196 41.1055 226.196 41.125C226.196 42.6672 225.746 43.8694 224.847 44.7315C223.963 45.5871 222.733 46.016 221.158 46.016C219.57 46.016 218.338 45.5979 217.456 44.7618C216.562 43.8954 216.113 42.6564 216.113 41.0427H216.115Z" fill="#2BAAE2"/>
<path id="Vector_17" d="M228.221 45.786V35.0791H232.817C234.634 35.0791 236.042 35.5903 237.039 36.6148C237.955 37.5636 238.414 38.8156 238.414 40.373C238.414 41.9369 237.962 43.2083 237.054 44.1852C236.053 45.2531 234.641 45.786 232.817 45.786H228.221ZM231.223 43.2473H232.813C233.71 43.2473 234.381 42.9462 234.829 42.3441C235.217 41.8372 235.412 41.1701 235.412 40.3426C235.412 39.5455 235.208 38.9087 234.799 38.43C234.351 37.8885 233.69 37.6156 232.813 37.6156H231.223V43.2452V43.2473Z" fill="#2BAAE2"/>
</g>
</g>
</g>
</svg>
