<svg width="119" height="56" viewBox="0 0 119 56" fill="none" xmlns="http://www.w3.org/2000/svg">
<g id="Group">
<g id="Group_2">
<path id="Vector" d="M40.4215 0H30.9922V5.54087H40.4215V0Z" fill="#343868"/>
<path id="Vector_2" d="M4.89894 24.3285C7.23274 26.5695 10.7334 28.3427 14.9358 28.3427C16.7103 28.3427 18.3907 27.7351 18.3907 26.5225C18.3907 25.3098 17.084 24.7022 14.0028 24.1416C8.86742 23.2086 1.0258 21.9947 1.0258 14.1988C1.0258 8.92363 5.41375 4.11621 13.9558 4.11621C19.0441 4.11621 23.6189 5.56276 27.1666 8.45713L22.1253 15.1318C19.4178 13.0777 15.9171 12.0506 13.4422 12.0506C11.1084 12.0506 10.5949 12.8908 10.5949 13.684C10.5949 14.898 11.8559 15.3174 15.1697 15.878C20.3051 16.7653 27.9141 18.2588 27.9141 25.4471C27.9141 32.3087 22.8257 36.2771 14.4706 36.2771C7.84162 36.2771 3.31384 34.317 0 31.3286L4.89894 24.3285Z" fill="#343868"/>
<path id="Vector_3" d="M30.9922 35.7188V7.93945H40.4215V35.7188H30.9922Z" fill="#343868"/>
<path id="Vector_4" d="M45.4648 30.6201V35.7199H50.5659L45.4648 30.6201Z" fill="#343868"/>
<path id="Vector_5" d="M70.9121 35.7184H80.3414V20.2754L70.9121 29.7047V35.7184Z" fill="#343868"/>
<path id="Vector_6" d="M108.714 35.7191L107.5 31.7049H95.5497L94.3357 35.7191H84.1133L95.5967 4.58398H107.454L118.937 35.7191H108.714ZM101.525 12.8921L97.9775 23.862H105.073L101.525 12.8921Z" fill="#343868"/>
<path id="Vector_7" d="M80.3415 0.0114402V13.1727L70.9122 22.6033L57.7967 35.7188L51.2046 29.1267L51.2071 29.1229L45.4629 23.3799V10.2021L45.4667 10.1983L57.7992 22.5296L80.3301 0L80.3415 0.0114402Z" fill="#00B04E"/>
</g>
<g id="Group_3">
<g id="Group_4">
<path id="Vector_8" d="M84.9065 42.9696V54.9729H82.3516V42.9696H84.9065ZM82.7647 39.9291C82.9986 39.6952 83.2871 39.5693 83.629 39.5693C83.971 39.5693 84.2583 39.6952 84.4921 39.9291C84.726 40.163 84.8519 40.4515 84.8519 40.7922C84.8519 41.1328 84.7438 41.4226 84.5099 41.6565C84.2761 41.8904 83.9875 42.0163 83.6456 42.0163C83.3036 42.0163 83.0164 41.8904 82.7825 41.6565C82.5486 41.4226 82.4227 41.1341 82.4227 40.7922C82.4227 40.4502 82.5486 40.163 82.7825 39.9291H82.7647Z" fill="#00B04E"/>
<path id="Vector_9" d="M85.1033 55.17H82.1543V42.7726H85.1033V55.17ZM82.5484 54.776H84.7093V43.1667H82.5484V54.776ZM83.6466 42.2133C83.2576 42.2133 82.9208 42.0722 82.6437 41.7951C82.3666 41.518 82.2255 41.1799 82.2255 40.7922C82.2255 40.5494 82.2801 40.3257 82.3895 40.1261H82.3068L82.6246 39.7893C82.9017 39.5122 83.2398 39.3711 83.6275 39.3711C84.0165 39.3711 84.3534 39.5122 84.6305 39.7893C84.9076 40.0664 85.0487 40.4045 85.0487 40.7922C85.0487 41.1926 84.9139 41.5307 84.6495 41.7951C84.3724 42.0735 84.0356 42.2133 83.6466 42.2133ZM83.0352 39.9545L82.9221 40.0677C82.7187 40.2711 82.6195 40.5075 82.6195 40.7922C82.6195 41.077 82.7187 41.3134 82.9221 41.5168C83.1254 41.7201 83.3619 41.8193 83.6466 41.8193C83.9313 41.8193 84.1678 41.7201 84.3712 41.5168C84.5618 41.3261 84.6559 41.0884 84.6559 40.7922C84.6559 40.5088 84.5567 40.2711 84.3534 40.0677C84.15 39.8643 83.9135 39.7651 83.6288 39.7651C83.4038 39.7664 83.2081 39.8274 83.0352 39.9545Z" fill="#00B04E"/>
</g>
<g id="Group_5">
<path id="Vector_10" d="M98.0422 49.5389C98.0422 49.1067 97.9341 48.7648 97.718 48.5131C97.5019 48.2614 97.1778 48.1356 96.7278 48.1356C96.3681 48.1356 96.0261 48.2436 95.6842 48.4419C95.3779 48.6402 95.1084 48.8741 94.9101 49.1436V55.0099H92.6068V49.5211C92.6068 49.0889 92.4988 48.747 92.2827 48.4953C92.0666 48.2436 91.7424 48.1178 91.2925 48.1178C90.9505 48.1178 90.6086 48.2258 90.2666 48.4241C89.9603 48.6224 89.6908 48.8563 89.4925 49.1258V54.9743H87.207V46.2823H89.4925V47.4161C89.7264 47.1098 90.1039 46.8047 90.6264 46.5162C91.1666 46.2289 91.7424 46.084 92.3361 46.084C92.9665 46.084 93.4877 46.2276 93.9021 46.4984C94.3165 46.7679 94.6038 47.1467 94.7652 47.6678C95.0347 47.2356 95.4491 46.8581 95.9893 46.5518C96.5473 46.2454 97.1231 46.084 97.7524 46.084C98.5621 46.084 99.1925 46.3001 99.6425 46.7323C100.093 47.1644 100.309 47.8115 100.309 48.6936V54.9743H98.0053V49.4855L98.0422 49.5389Z" fill="#00B04E"/>
<path id="Vector_11" d="M95.1076 55.2067H92.4102V49.5209C92.4102 49.1395 92.3174 48.837 92.1344 48.6235C91.9564 48.415 91.6819 48.3146 91.2942 48.3146C90.9993 48.3146 90.6866 48.4086 90.3675 48.5942C90.0904 48.7735 89.8616 48.9756 89.6925 49.1917V55.1711H87.0117V46.085H89.6913V46.9214C89.9188 46.7206 90.1997 46.5274 90.5328 46.3431C91.101 46.0393 91.7073 45.8867 92.3378 45.8867C92.9949 45.8867 93.5581 46.0367 94.0106 46.3329C94.3703 46.568 94.6372 46.8718 94.819 47.2583C95.0936 46.924 95.4533 46.6303 95.8931 46.3799C96.4995 46.0482 97.1071 45.8867 97.7541 45.8867C98.6133 45.8867 99.2947 46.1231 99.7802 46.5897C100.27 47.0587 100.507 47.7464 100.507 48.6934V55.1711H97.81V49.1586C97.7668 48.9514 97.6867 48.7785 97.5697 48.6413C97.3918 48.4328 97.1172 48.3324 96.7295 48.3324C96.4181 48.3324 96.1092 48.4239 95.7838 48.612C95.5067 48.7913 95.2779 48.9934 95.1088 49.2095V55.2067H95.1076ZM92.8043 54.8126H94.7135V49.0785L94.7516 49.0264C94.9525 48.7531 95.2296 48.5002 95.5779 48.2752C95.9719 48.0464 96.3456 47.9371 96.7283 47.9371C97.2304 47.9371 97.613 48.0871 97.8672 48.3832C98.1138 48.6705 98.2384 49.0595 98.2384 49.5374V50.1895L98.2028 50.1348V54.7745H100.112V48.6908C100.112 47.857 99.9137 47.2621 99.507 46.8718C99.0976 46.4778 98.5078 46.2782 97.7541 46.2782C97.1757 46.2782 96.6291 46.4231 96.0851 46.7219C95.5753 47.0104 95.1876 47.3638 94.9334 47.7693L94.7059 48.1341L94.5788 47.7235C94.4339 47.257 94.1784 46.91 93.7958 46.6608C93.4068 46.4079 92.9161 46.2795 92.3378 46.2795C91.7734 46.2795 91.2293 46.4168 90.7209 46.6875C90.2353 46.9557 89.8756 47.2405 89.6506 47.5328L89.2972 47.9955V46.4765H87.4058V54.7745H89.2972V49.0582L89.3353 49.0061C89.5362 48.7328 89.8133 48.4798 90.1616 48.2548C90.5505 48.0298 90.9293 47.918 91.2942 47.918C91.7963 47.918 92.1789 48.068 92.4331 48.3642C92.6797 48.6514 92.8043 49.0404 92.8043 49.5183V54.8126Z" fill="#00B04E"/>
</g>
<g id="Group_6">
<path id="Vector_12" d="M106.104 48.2792H102.182V46.2822H109.2V47.9385L105.222 52.9773H109.272V54.9742H102.182V53.2646L106.104 48.2792Z" fill="#00B04E"/>
<path id="Vector_13" d="M109.469 55.17H101.984V53.1947L105.699 48.475H101.984V46.084H109.396V48.0047L105.629 52.7778H109.469V55.17ZM102.378 54.776H109.075V53.1731H104.816L109.004 47.8687V46.478H102.38V48.0809H106.512L102.38 53.3307V54.776H102.378Z" fill="#00B04E"/>
</g>
<g id="Group_7">
<path id="Vector_14" d="M116.378 54.0735C116.071 54.4154 115.676 54.6849 115.19 54.8832C114.723 55.0815 114.2 55.1717 113.624 55.1717C113.139 55.1717 112.671 55.0637 112.203 54.8476C111.753 54.6315 111.358 54.3074 111.052 53.8765C110.745 53.4621 110.602 52.9409 110.602 52.3104C110.602 51.6812 110.745 51.1588 111.052 50.7444C111.358 50.33 111.735 50.0249 112.185 49.8266C112.618 49.6283 113.103 49.5394 113.626 49.5394C114.219 49.5394 114.759 49.6296 115.245 49.8088C115.713 49.9893 116.09 50.2588 116.397 50.6008V49.3944C116.397 48.9445 116.216 48.5847 115.874 48.3153C115.532 48.0458 115.082 47.9199 114.489 47.9199C113.535 47.9199 112.689 48.2619 111.952 48.9457L111.088 47.4166C111.611 46.9666 112.187 46.6247 112.851 46.3908C113.481 46.1569 114.166 46.0488 114.885 46.0488C116.019 46.0488 116.919 46.3005 117.621 46.8229C118.322 47.3454 118.682 48.1907 118.682 49.3601V54.9747H116.397V54.0748H116.378V54.0735ZM116.378 51.7689C116.197 51.535 115.945 51.3545 115.621 51.2287C115.279 51.1029 114.937 51.0304 114.56 51.0304C114.092 51.0304 113.697 51.1562 113.39 51.3901C113.084 51.624 112.923 51.9482 112.923 52.3435C112.923 52.721 113.084 53.0451 113.39 53.279C113.697 53.5129 114.074 53.621 114.56 53.621C114.937 53.621 115.279 53.5485 115.621 53.4227C115.945 53.2968 116.197 53.1163 116.378 52.8824V51.8032V51.7689Z" fill="#00B04E"/>
<path id="Vector_15" d="M113.625 55.3678C113.112 55.3678 112.62 55.256 112.122 55.0259C111.623 54.7869 111.21 54.4387 110.891 53.9899C110.564 53.5476 110.404 52.9972 110.404 52.3108C110.404 51.6231 110.564 51.0727 110.892 50.6278C111.218 50.188 111.626 49.8575 112.105 49.6465C112.545 49.4444 113.057 49.3414 113.624 49.3414C114.239 49.3414 114.806 49.4367 115.312 49.6236C115.64 49.7494 115.936 49.9223 116.198 50.1384V49.3948C116.198 49.0096 116.052 48.7071 115.751 48.4694C115.446 48.2279 115.044 48.116 114.487 48.116C113.588 48.116 112.78 48.444 112.083 49.0897L111.9 49.2588L110.835 47.3712L110.957 47.2656C111.511 46.7877 112.109 46.4407 112.784 46.203C113.413 45.9691 114.121 45.8496 114.883 45.8496C116.067 45.8496 117 46.1153 117.735 46.6619C118.493 47.225 118.876 48.1326 118.876 49.3579V55.1696H116.197V54.5162C115.93 54.7361 115.617 54.9204 115.263 55.064C114.785 55.2687 114.248 55.3678 113.625 55.3678ZM113.625 49.7355C113.116 49.7355 112.658 49.8257 112.268 50.0049C111.85 50.1893 111.495 50.4765 111.21 50.8604C110.933 51.2354 110.798 51.7083 110.798 52.3095C110.798 52.9095 110.933 53.3836 111.21 53.7586C111.491 54.1552 111.853 54.4615 112.288 54.67C112.732 54.8746 113.169 54.9751 113.624 54.9751C114.192 54.9751 114.679 54.8861 115.113 54.703C115.57 54.5162 115.946 54.2607 116.23 53.9429L116.288 53.8768H116.592V54.7768H118.484V49.3592C118.484 48.2648 118.153 47.4652 117.501 46.9796C116.836 46.4852 115.979 46.2449 114.884 46.2449C114.169 46.2449 113.507 46.3555 112.919 46.5742C112.338 46.7788 111.819 47.0686 111.339 47.4614L112.002 48.6372C112.732 48.0296 113.566 47.722 114.487 47.722C115.128 47.722 115.621 47.8656 115.995 48.1605C116.391 48.4732 116.592 48.8889 116.592 49.3948V51.1159L116.249 50.732C115.95 50.3977 115.598 50.1562 115.174 49.9922C114.716 49.8219 114.194 49.7355 113.625 49.7355ZM114.561 53.8209C114.03 53.8209 113.608 53.6963 113.272 53.4383C112.915 53.165 112.727 52.7874 112.727 52.3464C112.727 51.8926 112.915 51.5087 113.272 51.2367C113.619 50.971 114.052 50.8363 114.561 50.8363C114.944 50.8363 115.302 50.9036 115.691 51.046C116.051 51.1858 116.333 51.3892 116.535 51.6511L116.576 51.7044V52.954L116.535 53.0074C116.334 53.2692 116.051 53.4726 115.695 53.6111C115.302 53.7535 114.944 53.8209 114.561 53.8209ZM114.561 51.229C114.141 51.229 113.788 51.3371 113.511 51.5481C113.252 51.7464 113.121 52.0146 113.121 52.3451C113.121 52.6591 113.255 52.9285 113.511 53.1243C113.78 53.3302 114.113 53.4256 114.561 53.4256C114.895 53.4256 115.21 53.3671 115.555 53.24C115.816 53.1383 116.028 52.9959 116.182 52.8154V51.8392C116.028 51.6587 115.816 51.5163 115.551 51.4134C115.212 51.2875 114.895 51.229 114.561 51.229Z" fill="#00B04E"/>
</g>
</g>
</g>
</svg>
