<svg width="56" height="56" viewBox="0 0 56 56" fill="none" xmlns="http://www.w3.org/2000/svg">
<g id="Cloud check">
<path id="Vector" opacity="0.24" fill-rule="evenodd" clip-rule="evenodd" d="M43.7935 18.8532C43.5257 18.8204 43.3104 18.6132 43.2691 18.3465C42.4526 13.0936 38.2446 4.74878 28.0044 4.74878C17.7644 4.74878 13.5537 13.0936 12.7372 18.3465C12.6957 18.6132 12.4805 18.8204 12.2126 18.8532C5.44853 19.6819 0.866455 24.8682 0.866455 31.9957C0.866455 37.1911 3.93149 41.9334 8.72258 44.101C10.1578 44.6831 11.4549 44.9509 12.4719 45.0716C12.8861 45.1206 13.1889 44.7046 13.0859 44.3003C12.4822 41.9309 13.1047 39.3125 14.9616 37.4606C17.7657 34.6651 22.3045 34.668 25.1 37.4663L26.1855 38.5559C26.4091 38.7807 26.773 38.781 26.9972 38.5564L35.0377 30.5105C37.8361 27.7093 42.3777 27.7064 45.1761 30.5076C47.9745 33.306 47.9774 37.8448 45.179 40.6432L41.5875 44.2347C41.2412 44.581 41.4866 45.1734 41.9763 45.1734C42.9741 45.1734 44.9869 45.0358 47.3494 44.0896C52.0775 41.9506 55.1339 37.2026 55.1339 31.9957C55.1339 24.8682 50.5573 19.6819 43.7935 18.8532Z" fill="#2E90FA"/>
<path id="Vector_2" fill-rule="evenodd" clip-rule="evenodd" d="M26.5883 51.2479C26.0177 51.2479 25.4701 51.0214 25.0658 50.6172L18.5057 44.0455C17.6656 43.2054 17.6656 41.8435 18.5086 41.0034C19.3486 40.1662 20.7106 40.1662 21.5477 41.0063L26.5883 46.0554L38.5875 34.0505C39.4276 33.2104 40.7895 33.2104 41.6296 34.0505C42.4697 34.8877 42.4697 36.2525 41.6296 37.0926L28.1079 50.6172C27.7065 51.0214 27.1588 51.2479 26.5883 51.2479Z" fill="#2E90FA"/>
</g>
</svg>
