<svg width="56" height="56" viewBox="0 0 56 56" fill="none" xmlns="http://www.w3.org/2000/svg">
<g id="Success Documents">
<path id="Vector" opacity="0.24" fill-rule="evenodd" clip-rule="evenodd" d="M41.043 20.125H14.9595C9.73281 20.125 5.47681 24.4058 5.47681 29.6325V42.4502C5.47681 47.7018 9.73281 51.9578 14.9595 51.9578H41.043C46.2697 51.9578 50.5257 47.7018 50.5257 42.4502V29.6325C50.5257 24.4058 46.2697 20.125 41.043 20.125Z" fill="#2E90FA"/>
<path id="Vector_2" fill-rule="evenodd" clip-rule="evenodd" d="M19.8342 7.77826H36.1663C37.1967 7.77826 38.0329 6.94199 38.0329 5.91159C38.0329 4.88119 37.1967 4.04492 36.1663 4.04492H19.8342C18.8038 4.04492 17.9675 4.88119 17.9675 5.91159C17.9675 6.94199 18.8038 7.77826 19.8342 7.77826Z" fill="#2E90FA"/>
<path id="Vector_3" fill-rule="evenodd" clip-rule="evenodd" d="M13.5193 15.5239H42.4825C43.5129 15.5239 44.3491 14.6876 44.3491 13.6572C44.3491 12.6268 43.5129 11.7905 42.4825 11.7905H13.5193C12.4889 11.7905 11.6526 12.6268 11.6526 13.6572C11.6526 14.6876 12.4889 15.5239 13.5193 15.5239Z" fill="#2E90FA"/>
<path id="Vector_4" fill-rule="evenodd" clip-rule="evenodd" d="M36.0409 33.464L28.2258 41.2791C27.8525 41.6275 27.3796 41.8018 26.9067 41.8018C26.4338 41.8018 25.9609 41.6275 25.5876 41.2791L21.5805 37.2471C20.8338 36.5253 20.8338 35.3555 21.5805 34.6089C22.3023 33.8871 23.472 33.8871 24.2187 34.6089L26.9067 37.2969L33.4027 30.8258C34.1245 30.104 35.2943 30.104 36.0409 30.8258C36.7627 31.5475 36.7627 32.7422 36.0409 33.464Z" fill="#2E90FA"/>
</g>
</svg>
