<svg width="56" height="56" viewBox="0 0 56 56" fill="none" xmlns="http://www.w3.org/2000/svg">
<g id="Document verified">
<path id="Vector" opacity="0.24" fill-rule="evenodd" clip-rule="evenodd" d="M20.002 31.97H15.7727C14.6687 31.97 13.7727 31.074 13.7727 29.97C13.7727 28.866 14.6687 27.97 15.7727 27.97H20.002C21.106 27.97 22.002 28.866 22.002 29.97C22.002 31.074 21.106 31.97 20.002 31.97ZM15.7753 16.7807H26.1353C27.2393 16.7807 28.1353 17.6767 28.1353 18.7807C28.1353 19.8847 27.2393 20.7807 26.1353 20.7807H15.7753C14.6713 20.7807 13.7753 19.8847 13.7753 18.7807C13.7753 17.6767 14.6713 16.7807 15.7753 16.7807ZM26.3406 46.3967L25.8446 45.898C24.5859 44.65 23.8793 42.9647 23.8713 41.17C23.8606 39.37 24.5539 37.6794 25.8206 36.402C25.8499 36.3674 25.8819 36.338 25.9139 36.306L26.3406 35.882V35.17C26.3406 31.466 29.3566 28.4447 33.0633 28.4394H33.7886L34.2739 27.954C35.5246 26.6874 37.2126 25.978 39.0099 25.97H39.0419C40.8313 25.97 42.5139 26.6634 43.7833 27.9247C43.8153 27.954 43.8446 27.986 43.8739 28.018L44.2979 28.4394H45.0153C45.6419 28.4394 46.2366 28.5514 46.8126 28.714V15.0927C46.8126 8.62608 41.5513 3.36475 35.0873 3.36475H17.1833C10.7193 3.36475 5.45801 8.62608 5.45801 15.0927V39.7194C5.45801 46.1834 10.7193 51.442 17.1833 51.442H27.9593C26.9646 50.2687 26.3406 48.77 26.3406 47.1167V46.3967Z" fill="#2E90FA"/>
<path id="Vector_2" fill-rule="evenodd" clip-rule="evenodd" d="M43.718 40.1413L39.1154 44.7466C38.79 45.0693 38.35 45.2533 37.8887 45.2533C37.43 45.2506 36.9874 45.0693 36.662 44.744L34.43 42.504C33.7527 41.8266 33.7554 40.728 34.4327 40.0533C35.11 39.3733 36.2087 39.3813 36.8834 40.056L37.8914 41.0666L41.2674 37.688C41.942 37.0106 43.0407 37.0106 43.718 37.688C44.3954 38.3653 44.3954 39.464 43.718 40.1413ZM49.422 38.4373L48.6327 37.648C48.422 37.4346 48.2994 37.1413 48.2994 36.8373V35.7093C48.2994 33.6026 46.5874 31.888 44.4807 31.888H43.3474C43.0434 31.888 42.7554 31.7706 42.5394 31.5546L41.734 30.752C41.0087 30.032 40.1047 29.5706 39.0247 29.6426C38.006 29.648 37.0487 30.0506 36.3367 30.7706L35.5527 31.5546C35.3367 31.7706 35.0487 31.888 34.7394 31.888H33.606C31.5047 31.8933 29.7927 33.6053 29.7927 35.7066L29.79 36.8346C29.79 37.136 29.6674 37.432 29.4567 37.6453L28.7287 38.3786C28.6994 38.4026 28.6727 38.424 28.6487 38.4506C27.9314 39.176 27.5367 40.136 27.542 41.1573C27.5474 42.176 27.9474 43.1333 28.6647 43.8426L29.454 44.6373C29.6727 44.856 29.7927 45.1413 29.7927 45.4426V46.5813C29.7927 48.6853 31.5047 50.4 33.6087 50.4H34.7367C35.038 50.4 35.3314 50.5226 35.5447 50.7306L36.3527 51.536C37.0727 52.2506 38.0274 52.6426 39.0407 52.6426H39.054C40.0754 52.64 41.0327 52.2373 41.742 51.5226L42.5394 50.728C42.7527 50.512 43.0407 50.3946 43.3447 50.3946H44.486C46.5874 50.3946 48.2994 48.6853 48.302 46.5813V45.4453C48.302 45.1413 48.422 44.8533 48.63 44.64L49.4354 43.8373C50.918 42.344 50.9127 39.9226 49.422 38.4373Z" fill="#2E90FA"/>
<path id="Vector_3" fill-rule="evenodd" clip-rule="evenodd" d="M20.0028 31.9707H15.7734C14.6694 31.9707 13.7734 31.0747 13.7734 29.9707C13.7734 28.8667 14.6694 27.9707 15.7734 27.9707H20.0028C21.1068 27.9707 22.0028 28.8667 22.0028 29.9707C22.0028 31.0747 21.1068 31.9707 20.0028 31.9707ZM15.7761 16.7812H26.136C27.24 16.7812 28.136 17.6772 28.136 18.7812C28.136 19.8852 27.24 20.7812 26.136 20.7812H15.7761C14.6721 20.7812 13.7761 19.8852 13.7761 18.7812C13.7761 17.6772 14.6721 16.7812 15.7761 16.7812Z" fill="#2E90FA"/>
</g>
</svg>
