<svg width="42" height="42" viewBox="0 0 42 42" fill="none" xmlns="http://www.w3.org/2000/svg">
<g id="Group 647">
<path id="Ellipse 64" d="M21 41.5C32.3218 41.5 41.5 32.3218 41.5 21C41.5 9.67816 32.3218 0.5 21 0.5C9.67816 0.5 0.5 9.67816 0.5 21C0.5 32.3218 9.67816 41.5 21 41.5Z" stroke="#697586"/>
<path id="Path 17" d="M23 22.2H25.1429L26 19H23V17.4C23 16.576 23 15.8 24.7143 15.8H26V13.112C25.7206 13.0776 24.6654 13 23.5511 13C21.224 13 19.5714 14.3256 19.5714 16.76V19H17V22.2H19.5714V29H23V22.2Z" fill="#697586"/>
</g>
</svg>
