<svg width="24" height="24" viewBox="0 0 24 24" fill="none" xmlns="http://www.w3.org/2000/svg">
    <path fillRule="evenodd" clipRule="evenodd" d="M17.8945 20.4387C17.9671 20.5377 18.1137 20.5445 18.1815 20.4421C18.4105 20.096 18.5186 19.6597 18.4476 19.2243L17.8294 15.693C17.817 15.6224 17.7663 15.5645 17.6977 15.5429L13.8477 14.3277C13.6701 14.2716 13.5239 14.474 13.6336 14.6238L17.8945 20.4387Z" fill="#EEF2F6"/>
    <path fillRule="evenodd" clipRule="evenodd" d="M13.675 11.8079C13.5645 11.9576 13.7108 12.1609 13.8887 12.1046L20.9651 9.87089C21.0819 9.83403 21.1353 9.69867 21.0608 9.60171C20.7914 9.25078 20.3978 9.01967 19.947 8.95352L16.296 8.42946C16.2255 8.41934 16.1553 8.44868 16.1131 8.50578L13.675 11.8079Z" fill="#EEF2F6"/>
    <path fillRule="evenodd" clipRule="evenodd" d="M11.1587 11.2446C11.2686 11.3947 11.5074 11.3172 11.5074 11.1315V3.77634C11.5074 3.648 11.383 3.5563 11.2666 3.61168C10.9374 3.76843 10.6481 4.03551 10.4708 4.36401C10.4688 4.36785 10.466 4.37265 10.4639 4.37745L8.75468 7.78749C8.72249 7.8517 8.72895 7.9284 8.77143 7.98637L11.1587 11.2446Z" fill="#EEF2F6"/>
    <path fillRule="evenodd" clipRule="evenodd" d="M11.5082 15.3313C11.5082 15.1458 11.2702 15.0681 11.1599 15.2176L6.95326 20.916C6.87368 21.0238 6.92723 21.1769 7.06071 21.1924C7.40232 21.2317 7.74917 21.1682 8.03678 21.0099L11.4039 19.276C11.4679 19.243 11.5082 19.1772 11.5082 19.1055V15.3313Z" fill="#CDD5DF"/>
    <path fillRule="evenodd" clipRule="evenodd" d="M9.77026 13.4057C9.94968 13.349 9.94968 13.0963 9.77026 13.0396L2.87176 10.8617C2.74144 10.8205 2.61203 10.9242 2.64617 11.056C2.72274 11.3515 2.88183 11.6254 3.10549 11.8402L5.9089 14.5194C5.95983 14.5681 6.03343 14.5851 6.10073 14.5638L9.77026 13.4057Z" fill="#CDD5DF"/>
    <g opacity="0.4">
        <path fillRule="evenodd" clipRule="evenodd" d="M12.498 11.1504C12.498 11.3358 12.7359 11.4135 12.8462 11.2641L15.2429 8.01735C15.2858 7.95929 15.2923 7.88223 15.26 7.81779L13.5278 4.36885C13.3481 4.02889 13.0674 3.77325 12.7404 3.61909C12.6234 3.56395 12.498 3.65599 12.498 3.78486V11.1504Z" fill="#CDD5DF"/>
        <path fillRule="evenodd" clipRule="evenodd" d="M6.30092 15.5355C6.23234 15.5571 6.18156 15.615 6.16921 15.6856L5.54904 19.2293C5.47901 19.6596 5.58231 20.0752 5.80398 20.4158C5.87142 20.5194 6.01933 20.5138 6.09278 20.4144L10.3739 14.6141C10.4843 14.4644 10.338 14.2613 10.1602 14.3174L6.30092 15.5355Z" fill="#CDD5DF"/>
        <path fillRule="evenodd" clipRule="evenodd" d="M12.8467 15.2238C12.7367 15.0736 12.498 15.1511 12.498 15.3369V19.1096C12.498 19.1813 12.5383 19.247 12.6023 19.2801L15.9559 21.0072C16.2531 21.1641 16.5819 21.2274 16.9091 21.1965C17.0443 21.1837 17.1007 21.0292 17.0205 20.9198L12.8467 15.2238Z" fill="#CDD5DF"/>
        <path fillRule="evenodd" clipRule="evenodd" d="M14.2068 13.0398C14.0274 13.0964 14.0274 13.3492 14.2068 13.4058L17.8994 14.5717C17.9668 14.593 18.0405 14.5758 18.0915 14.5269L20.8938 11.8414C21.1226 11.6232 21.2779 11.3505 21.3538 11.0508C21.3873 10.9183 21.2573 10.8135 21.1263 10.8548L14.2068 13.0398Z" fill="#CDD5DF"/>
        <path fillRule="evenodd" clipRule="evenodd" d="M10.1429 12.1223C10.3205 12.1784 10.4669 11.976 10.357 11.8262L7.92087 8.50098C7.87877 8.44351 7.80821 8.41393 7.73751 8.42409L4.0571 8.95286C3.59265 9.01543 3.20075 9.26306 2.93814 9.60894C2.86439 9.7061 2.91779 9.84088 3.03437 9.87765L10.1429 12.1223Z" fill="#CDD5DF"/>
    </g>
</svg>
