<svg xmlns="http://www.w3.org/2000/svg" width="24" height="24" viewBox="0 0 24 24" fill="none">
    <path opacity="0.4" fillRule="evenodd" clipRule="evenodd" d="M19.3663 19.6089V5.13205C19.3663 3.71797 18.2171 2.56885 16.804 2.56885H7.15794C5.74482 2.56885 4.5957 3.71797 4.5957 5.13205V19.6089H19.3663Z" fill="white"/>
    <path d="M14.1492 9.0868C14.4007 9.03592 14.6177 8.89096 14.7588 8.67784C14.9009 8.46472 14.9517 8.2084 14.8989 7.94824C14.85 7.69672 14.7041 7.47976 14.4919 7.33768C14.2778 7.19752 14.0215 7.1476 13.7709 7.19944C13.5194 7.24936 13.3015 7.39624 13.1604 7.61128C13.0193 7.82536 12.9684 8.08169 13.0193 8.3332C13.1076 8.78056 13.5031 9.10504 13.9591 9.10504C14.0244 9.10504 14.0887 9.09832 14.1492 9.0868Z" fill="white"/>
    <path d="M14.1492 12.9269C14.4007 12.876 14.6177 12.7311 14.7588 12.5179C14.9009 12.3048 14.9517 12.0485 14.8989 11.7883C14.85 11.5368 14.7041 11.3199 14.4919 11.1778C14.2778 11.0376 14.0215 10.9877 13.7709 11.0395C13.5194 11.0895 13.3015 11.2363 13.1604 11.4514C13.0193 11.6655 12.9684 11.9218 13.0193 12.1733C13.1076 12.6207 13.5031 12.9451 13.9591 12.9451C14.0244 12.9451 14.0887 12.9384 14.1492 12.9269Z" fill="white"/>
    <path d="M13.9589 16.6986C14.0232 16.6986 14.0875 16.6928 14.148 16.6803C14.6664 16.5767 15.0053 16.0707 14.8987 15.5418C14.7969 15.0262 14.2881 14.6874 13.7707 14.7929C13.2523 14.8967 12.9144 15.4054 13.019 15.9268C13.1073 16.3751 13.5029 16.6986 13.9589 16.6986Z" fill="white"/>
    <path d="M10.1882 9.0868C10.4397 9.03592 10.6567 8.89096 10.7978 8.67784C10.9399 8.46472 10.9908 8.2084 10.9389 7.94824C10.889 7.69672 10.7431 7.47976 10.53 7.33768C10.3149 7.19752 10.0596 7.1476 9.80996 7.19944C9.55849 7.24936 9.34057 7.39624 9.19945 7.61128C9.05833 7.82536 9.00745 8.08169 9.05833 8.3332C9.14665 8.78056 9.54217 9.10504 9.99812 9.10504C10.0634 9.10504 10.1277 9.09832 10.1882 9.0868Z" fill="white"/>
    <path d="M10.1882 12.9269C10.4397 12.876 10.6567 12.7311 10.7978 12.5179C10.9399 12.3048 10.9908 12.0485 10.9389 11.7883C10.889 11.5368 10.7431 11.3199 10.53 11.1778C10.3149 11.0376 10.0596 10.9877 9.80996 11.0395C9.55849 11.0895 9.34057 11.2363 9.19945 11.4514C9.05833 11.6655 9.00745 11.9218 9.05833 12.1733C9.14665 12.6207 9.54217 12.9451 9.99812 12.9451C10.0634 12.9451 10.1277 12.9384 10.1882 12.9269Z" fill="white"/>
    <path d="M9.99787 16.6986C10.0622 16.6986 10.1265 16.6928 10.187 16.6804C10.7054 16.5767 11.0443 16.0708 10.9387 15.5418C10.8359 15.0263 10.3281 14.6864 9.80971 14.793C9.29136 14.8967 8.95344 15.4055 9.05808 15.9268C9.1464 16.3751 9.54192 16.6986 9.99787 16.6986Z" fill="white"/>
    <path d="M20.9513 20.3289C20.9513 19.9353 20.6345 19.6089 20.2313 19.6089H3.71219C3.31859 19.6089 2.99219 19.9353 2.99219 20.3289C2.99219 20.7321 3.31859 21.0489 3.71219 21.0489H20.2313C20.6345 21.0489 20.9513 20.7321 20.9513 20.3289Z" fill="white"/>
</svg>